# xmcd
#
# Track frame offsets:
#	150
#	26820
#	61196
#	85846
#	109545
#	133019
#	155281
#	179335
#	201465
#	228009
#	247004
#	276296
#	300795
#	325902
#	348241
#
# Disc length: 4865 seconds
#
# Revision: 1
# Processed by: cddbd v1.5.2PL0 Copyright (c) Steve Scherf et al.
# Submitted via: audiograbber 1.83.01
#
DISCID=c612ff0f
DTITLE=Oslo Gospel Choir - This is the day - part one
DYEAR=2006
DGENRE=Gospel
TTITLE0=ThisIsTheDay
TTITLE1=Got me some angels
TTITLE2=Bridge over troubled water
TTITLE3=Eternal sunshine
TTITLE4=God so loved the world
TTITLE5=Born again
TTITLE6=Comin' back
TTITLE7=That's why I sing
TTITLE8=In this house
TTITLE9=On the cross of  Calvary
TTITLE10=My tribute
TTITLE11=Joy to the world - Bonus track
TTITLE12=Mitt hjerte alltid vanker - Bonus track
TTITLE13=Mary's boychild - Bonus track
TTITLE14=A star is shining tonight - Bonus track
EXTD=Sondtrack der Video-DVD
EXTT0=
EXTT1=
EXTT2=
EXTT3=
EXTT4=
EXTT5=
EXTT6=
EXTT7=
EXTT8=
EXTT9=
EXTT10=
EXTT11=
EXTT12=
EXTT13=
EXTT14=
PLAYORDER=
